<?xml version="1.0" encoding="utf-8" standalone="no"?>
<!DOCTYPE svg PUBLIC "-//W3C//DTD SVG 1.1//EN"
  "http://www.w3.org/Graphics/SVG/1.1/DTD/svg11.dtd">
<!-- Created with matplotlib (http://matplotlib.org/) -->
<svg height="345.6pt" version="1.1" viewBox="0 0 460.8 345.6" width="460.8pt" xmlns="http://www.w3.org/2000/svg" xmlns:xlink="http://www.w3.org/1999/xlink">
 <defs>
  <style type="text/css">
*{stroke-linecap:butt;stroke-linejoin:round;}
  </style>
 </defs>
 <g id="figure_1">
  <g id="patch_1">
   <path d="M 0 345.6 
L 460.8 345.6 
L 460.8 0 
L 0 0 
z
" style="fill:#ffffff;"/>
  </g>
  <g id="patch_2">
   <path d="M 0 345.6 
L 460.8 345.6 
L 460.8 0 
L 0 0 
z
" style="fill:#ffffff;"/>
  </g>
  <g id="pane3d_1">
   <g id="patch_3">
    <path d="M 61.086161 269.23458 
L 192.969532 184.501291 
L 190.773813 22.589882 
L 51.53708 98.721 
" style="fill:#f2f2f2;opacity:0.5;stroke:#f2f2f2;stroke-linejoin:miter;"/>
   </g>
  </g>
  <g id="pane3d_2">
   <g id="patch_4">
    <path d="M 192.969532 184.501291 
L 406.608193 231.872667 
L 415.546579 65.078886 
L 190.773813 22.589882 
" style="fill:#e6e6e6;opacity:0.5;stroke:#e6e6e6;stroke-linejoin:miter;"/>
   </g>
  </g>
  <g id="pane3d_3">
   <g id="patch_5">
    <path d="M 61.086161 269.23458 
L 285.8629 324.406266 
L 406.608193 231.872667 
L 192.969532 184.501291 
" style="fill:#ececec;opacity:0.5;stroke:#ececec;stroke-linejoin:miter;"/>
   </g>
  </g>
  <g id="axis3d_1">
   <g id="line2d_1">
    <path d="M 61.086161 269.23458 
L 285.8629 324.406266 
" style="fill:none;stroke:#000000;stroke-linecap:square;stroke-width:0.8;"/>
   </g>
   <g id="text_1">
    <!-- X Label -->
    <defs>
     <path d="M 6.296875 72.90625 
L 16.890625 72.90625 
L 35.015625 45.796875 
L 53.21875 72.90625 
L 63.8125 72.90625 
L 40.375 37.890625 
L 65.375 0 
L 54.78125 0 
L 34.28125 31 
L 13.625 0 
L 2.984375 0 
L 29 38.921875 
z
" id="DejaVuSans-58"/>
     <path id="DejaVuSans-20"/>
     <path d="M 9.8125 72.90625 
L 19.671875 72.90625 
L 19.671875 8.296875 
L 55.171875 8.296875 
L 55.171875 0 
L 9.8125 0 
z
" id="DejaVuSans-4c"/>
     <path d="M 34.28125 27.484375 
Q 23.390625 27.484375 19.1875 25 
Q 14.984375 22.515625 14.984375 16.5 
Q 14.984375 11.71875 18.140625 8.90625 
Q 21.296875 6.109375 26.703125 6.109375 
Q 34.1875 6.109375 38.703125 11.40625 
Q 43.21875 16.703125 43.21875 25.484375 
L 43.21875 27.484375 
z
M 52.203125 31.203125 
L 52.203125 0 
L 43.21875 0 
L 43.21875 8.296875 
Q 40.140625 3.328125 35.546875 0.953125 
Q 30.953125 -1.421875 24.3125 -1.421875 
Q 15.921875 -1.421875 10.953125 3.296875 
Q 6 8.015625 6 15.921875 
Q 6 25.140625 12.171875 29.828125 
Q 18.359375 34.515625 30.609375 34.515625 
L 43.21875 34.515625 
L 43.21875 35.40625 
Q 43.21875 41.609375 39.140625 45 
Q 35.0625 48.390625 27.6875 48.390625 
Q 23 48.390625 18.546875 47.265625 
Q 14.109375 46.140625 10.015625 43.890625 
L 10.015625 52.203125 
Q 14.9375 54.109375 19.578125 55.046875 
Q 24.21875 56 28.609375 56 
Q 40.484375 56 46.34375 49.84375 
Q 52.203125 43.703125 52.203125 31.203125 
z
" id="DejaVuSans-61"/>
     <path d="M 48.6875 27.296875 
Q 48.6875 37.203125 44.609375 42.84375 
Q 40.53125 48.484375 33.40625 48.484375 
Q 26.265625 48.484375 22.1875 42.84375 
Q 18.109375 37.203125 18.109375 27.296875 
Q 18.109375 17.390625 22.1875 11.75 
Q 26.265625 6.109375 33.40625 6.109375 
Q 40.53125 6.109375 44.609375 11.75 
Q 48.6875 17.390625 48.6875 27.296875 
z
M 18.109375 46.390625 
Q 20.953125 51.265625 25.265625 53.625 
Q 29.59375 56 35.59375 56 
Q 45.5625 56 51.78125 48.09375 
Q 58.015625 40.1875 58.015625 27.296875 
Q 58.015625 14.40625 51.78125 6.484375 
Q 45.5625 -1.421875 35.59375 -1.421875 
Q 29.59375 -1.421875 25.265625 0.953125 
Q 20.953125 3.328125 18.109375 8.203125 
L 18.109375 0 
L 9.078125 0 
L 9.078125 75.984375 
L 18.109375 75.984375 
z
" id="DejaVuSans-62"/>
     <path d="M 56.203125 29.59375 
L 56.203125 25.203125 
L 14.890625 25.203125 
Q 15.484375 15.921875 20.484375 11.0625 
Q 25.484375 6.203125 34.421875 6.203125 
Q 39.59375 6.203125 44.453125 7.46875 
Q 49.3125 8.734375 54.109375 11.28125 
L 54.109375 2.78125 
Q 49.265625 0.734375 44.1875 -0.34375 
Q 39.109375 -1.421875 33.890625 -1.421875 
Q 20.796875 -1.421875 13.15625 6.1875 
Q 5.515625 13.8125 5.515625 26.8125 
Q 5.515625 40.234375 12.765625 48.109375 
Q 20.015625 56 32.328125 56 
Q 43.359375 56 49.78125 48.890625 
Q 56.203125 41.796875 56.203125 29.59375 
z
M 47.21875 32.234375 
Q 47.125 39.59375 43.09375 43.984375 
Q 39.0625 48.390625 32.421875 48.390625 
Q 24.90625 48.390625 20.390625 44.140625 
Q 15.875 39.890625 15.1875 32.171875 
z
" id="DejaVuSans-65"/>
     <path d="M 9.421875 75.984375 
L 18.40625 75.984375 
L 18.40625 0 
L 9.421875 0 
z
" id="DejaVuSans-6c"/>
    </defs>
    <g transform="translate(136.374009 325.449185)rotate(-346.209322)scale(0.1 -0.1)">
     <use xlink:href="#DejaVuSans-58"/>
     <use x="68.505859" xlink:href="#DejaVuSans-20"/>
     <use x="100.292969" xlink:href="#DejaVuSans-4c"/>
     <use x="156.005859" xlink:href="#DejaVuSans-61"/>
     <use x="217.285156" xlink:href="#DejaVuSans-62"/>
     <use x="280.761719" xlink:href="#DejaVuSans-65"/>
     <use x="342.285156" xlink:href="#DejaVuSans-6c"/>
    </g>
   </g>
   <g id="Line3DCollection_1">
    <path d="M 69.521983 271.305161 
L 201.013265 186.284876 
L 199.219035 24.18629 
" style="fill:none;stroke:#b0b0b0;stroke-width:0.8;"/>
    <path d="M 95.591873 277.704043 
L 225.858639 191.793989 
L 225.313262 29.118906 
" style="fill:none;stroke:#b0b0b0;stroke-width:0.8;"/>
    <path d="M 121.94563 284.1726 
L 250.954886 197.35873 
L 251.684387 34.103864 
" style="fill:none;stroke:#b0b0b0;stroke-width:0.8;"/>
    <path d="M 148.587915 290.711977 
L 276.305825 202.979945 
L 278.336841 39.142002 
" style="fill:none;stroke:#b0b0b0;stroke-width:0.8;"/>
    <path d="M 175.523492 297.323343 
L 301.915352 208.658498 
L 305.27515 44.234175 
" style="fill:none;stroke:#b0b0b0;stroke-width:0.8;"/>
    <path d="M 202.757232 304.007893 
L 327.787445 214.395272 
L 332.503937 49.381258 
" style="fill:none;stroke:#b0b0b0;stroke-width:0.8;"/>
    <path d="M 230.294112 310.766849 
L 353.926162 220.191166 
L 360.027927 54.584144 
" style="fill:none;stroke:#b0b0b0;stroke-width:0.8;"/>
    <path d="M 258.139223 317.601461 
L 380.335646 226.047098 
L 387.851946 59.843744 
" style="fill:none;stroke:#b0b0b0;stroke-width:0.8;"/>
   </g>
   <g id="xtick_1">
    <g id="line2d_2">
     <path d="M 70.654759 270.572725 
L 67.252209 272.772763 
" style="fill:none;stroke:#000000;stroke-linecap:square;stroke-width:0.8;"/>
    </g>
    <g id="text_2">
     <!-- −0.03 -->
     <defs>
      <path d="M 10.59375 35.5 
L 73.1875 35.5 
L 73.1875 27.203125 
L 10.59375 27.203125 
z
" id="DejaVuSans-2212"/>
      <path d="M 31.78125 66.40625 
Q 24.171875 66.40625 20.328125 58.90625 
Q 16.5 51.421875 16.5 36.375 
Q 16.5 21.390625 20.328125 13.890625 
Q 24.171875 6.390625 31.78125 6.390625 
Q 39.453125 6.390625 43.28125 13.890625 
Q 47.125 21.390625 47.125 36.375 
Q 47.125 51.421875 43.28125 58.90625 
Q 39.453125 66.40625 31.78125 66.40625 
z
M 31.78125 74.21875 
Q 44.046875 74.21875 50.515625 64.515625 
Q 56.984375 54.828125 56.984375 36.375 
Q 56.984375 17.96875 50.515625 8.265625 
Q 44.046875 -1.421875 31.78125 -1.421875 
Q 19.53125 -1.421875 13.0625 8.265625 
Q 6.59375 17.96875 6.59375 36.375 
Q 6.59375 54.828125 13.0625 64.515625 
Q 19.53125 74.21875 31.78125 74.21875 
z
" id="DejaVuSans-30"/>
      <path d="M 10.6875 12.40625 
L 21 12.40625 
L 21 0 
L 10.6875 0 
z
" id="DejaVuSans-2e"/>
      <path d="M 40.578125 39.3125 
Q 47.65625 37.796875 51.625 33 
Q 55.609375 28.21875 55.609375 21.1875 
Q 55.609375 10.40625 48.1875 4.484375 
Q 40.765625 -1.421875 27.09375 -1.421875 
Q 22.515625 -1.421875 17.65625 -0.515625 
Q 12.796875 0.390625 7.625 2.203125 
L 7.625 11.71875 
Q 11.71875 9.328125 16.59375 8.109375 
Q 21.484375 6.890625 26.8125 6.890625 
Q 36.078125 6.890625 40.9375 10.546875 
Q 45.796875 14.203125 45.796875 21.1875 
Q 45.796875 27.640625 41.28125 31.265625 
Q 36.765625 34.90625 28.71875 34.90625 
L 20.21875 34.90625 
L 20.21875 43.015625 
L 29.109375 43.015625 
Q 36.375 43.015625 40.234375 45.921875 
Q 44.09375 48.828125 44.09375 54.296875 
Q 44.09375 59.90625 40.109375 62.90625 
Q 36.140625 65.921875 28.71875 65.921875 
Q 24.65625 65.921875 20.015625 65.03125 
Q 15.375 64.15625 9.8125 62.3125 
L 9.8125 71.09375 
Q 15.4375 72.65625 20.34375 73.4375 
Q 25.25 74.21875 29.59375 74.21875 
Q 40.828125 74.21875 47.359375 69.109375 
Q 53.90625 64.015625 53.90625 55.328125 
Q 53.90625 49.265625 50.4375 45.09375 
Q 46.96875 40.921875 40.578125 39.3125 
z
" id="DejaVuSans-33"/>
     </defs>
     <g transform="translate(46.903009 292.805671)scale(0.1 -0.1)">
      <use xlink:href="#DejaVuSans-2212"/>
      <use x="83.789062" xlink:href="#DejaVuSans-30"/>
      <use x="147.412109" xlink:href="#DejaVuSans-2e"/>
      <use x="179.199219" xlink:href="#DejaVuSans-30"/>
      <use x="242.822266" xlink:href="#DejaVuSans-33"/>
     </g>
    </g>
   </g>
   <g id="xtick_2">
    <g id="line2d_3">
     <path d="M 96.714534 276.963656 
L 93.342346 279.187591 
" style="fill:none;stroke:#000000;stroke-linecap:square;stroke-width:0.8;"/>
    </g>
    <g id="text_3">
     <!-- −0.02 -->
     <defs>
      <path d="M 19.1875 8.296875 
L 53.609375 8.296875 
L 53.609375 0 
L 7.328125 0 
L 7.328125 8.296875 
Q 12.9375 14.109375 22.625 23.890625 
Q 32.328125 33.6875 34.8125 36.53125 
Q 39.546875 41.84375 41.421875 45.53125 
Q 43.3125 49.21875 43.3125 52.78125 
Q 43.3125 58.59375 39.234375 62.25 
Q 35.15625 65.921875 28.609375 65.921875 
Q 23.96875 65.921875 18.8125 64.3125 
Q 13.671875 62.703125 7.8125 59.421875 
L 7.8125 69.390625 
Q 13.765625 71.78125 18.9375 73 
Q 24.125 74.21875 28.421875 74.21875 
Q 39.75 74.21875 46.484375 68.546875 
Q 53.21875 62.890625 53.21875 53.421875 
Q 53.21875 48.921875 51.53125 44.890625 
Q 49.859375 40.875 45.40625 35.40625 
Q 44.1875 33.984375 37.640625 27.21875 
Q 31.109375 20.453125 19.1875 8.296875 
z
" id="DejaVuSans-32"/>
     </defs>
     <g transform="translate(72.970479 299.289055)scale(0.1 -0.1)">
      <use xlink:href="#DejaVuSans-2212"/>
      <use x="83.789062" xlink:href="#DejaVuSans-30"/>
      <use x="147.412109" xlink:href="#DejaVuSans-2e"/>
      <use x="179.199219" xlink:href="#DejaVuSans-30"/>
      <use x="242.822266" xlink:href="#DejaVuSans-32"/>
     </g>
    </g>
   </g>
   <g id="xtick_3">
    <g id="line2d_4">
     <path d="M 123.057888 283.424132 
L 119.716926 285.672357 
" style="fill:none;stroke:#000000;stroke-linecap:square;stroke-width:0.8;"/>
    </g>
    <g id="text_4">
     <!-- −0.01 -->
     <defs>
      <path d="M 12.40625 8.296875 
L 28.515625 8.296875 
L 28.515625 63.921875 
L 10.984375 60.40625 
L 10.984375 69.390625 
L 28.421875 72.90625 
L 38.28125 72.90625 
L 38.28125 8.296875 
L 54.390625 8.296875 
L 54.390625 0 
L 12.40625 0 
z
" id="DejaVuSans-31"/>
     </defs>
     <g transform="translate(99.322196 305.843136)scale(0.1 -0.1)">
      <use xlink:href="#DejaVuSans-2212"/>
      <use x="83.789062" xlink:href="#DejaVuSans-30"/>
      <use x="147.412109" xlink:href="#DejaVuSans-2e"/>
      <use x="179.199219" xlink:href="#DejaVuSans-30"/>
      <use x="242.822266" xlink:href="#DejaVuSans-31"/>
     </g>
    </g>
   </g>
   <g id="xtick_4">
    <g id="line2d_5">
     <path d="M 149.689474 289.955294 
L 146.380627 292.228209 
" style="fill:none;stroke:#000000;stroke-linecap:square;stroke-width:0.8;"/>
    </g>
    <g id="text_5">
     <!-- 0.00 -->
     <g transform="translate(130.152677 312.469075)scale(0.1 -0.1)">
      <use xlink:href="#DejaVuSans-30"/>
      <use x="63.623047" xlink:href="#DejaVuSans-2e"/>
      <use x="95.410156" xlink:href="#DejaVuSans-30"/>
      <use x="159.033203" xlink:href="#DejaVuSans-30"/>
     </g>
    </g>
   </g>
   <g id="xtick_5">
    <g id="line2d_6">
     <path d="M 176.614048 296.55831 
L 173.338228 298.856322 
" style="fill:none;stroke:#000000;stroke-linecap:square;stroke-width:0.8;"/>
    </g>
    <g id="text_6">
     <!-- 0.01 -->
     <g transform="translate(157.087014 319.168063)scale(0.1 -0.1)">
      <use xlink:href="#DejaVuSans-30"/>
      <use x="63.623047" xlink:href="#DejaVuSans-2e"/>
      <use x="95.410156" xlink:href="#DejaVuSans-30"/>
      <use x="159.033203" xlink:href="#DejaVuSans-31"/>
     </g>
    </g>
   </g>
   <g id="xtick_6">
    <g id="line2d_7">
     <path d="M 203.836474 303.234371 
L 200.594616 305.5579 
" style="fill:none;stroke:#000000;stroke-linecap:square;stroke-width:0.8;"/>
    </g>
    <g id="text_7">
     <!-- 0.02 -->
     <g transform="translate(184.319934 325.941312)scale(0.1 -0.1)">
      <use xlink:href="#DejaVuSans-30"/>
      <use x="63.623047" xlink:href="#DejaVuSans-2e"/>
      <use x="95.410156" xlink:href="#DejaVuSans-30"/>
      <use x="159.033203" xlink:href="#DejaVuSans-32"/>
     </g>
    </g>
   </g>
   <g id="xtick_7">
    <g id="line2d_8">
     <path d="M 231.36172 309.984695 
L 228.154787 312.334168 
" style="fill:none;stroke:#000000;stroke-linecap:square;stroke-width:0.8;"/>
    </g>
    <g id="text_8">
     <!-- 0.03 -->
     <g transform="translate(211.856429 332.790065)scale(0.1 -0.1)">
      <use xlink:href="#DejaVuSans-30"/>
      <use x="63.623047" xlink:href="#DejaVuSans-2e"/>
      <use x="95.410156" xlink:href="#DejaVuSans-30"/>
      <use x="159.033203" xlink:href="#DejaVuSans-33"/>
     </g>
    </g>
   </g>
   <g id="xtick_8">
    <g id="line2d_9">
     <path d="M 259.194867 316.81053 
L 256.023847 319.186384 
" style="fill:none;stroke:#000000;stroke-linecap:square;stroke-width:0.8;"/>
    </g>
    <g id="text_9">
     <!-- 0.04 -->
     <defs>
      <path d="M 37.796875 64.3125 
L 12.890625 25.390625 
L 37.796875 25.390625 
z
M 35.203125 72.90625 
L 47.609375 72.90625 
L 47.609375 25.390625 
L 58.015625 25.390625 
L 58.015625 17.1875 
L 47.609375 17.1875 
L 47.609375 0 
L 37.796875 0 
L 37.796875 17.1875 
L 4.890625 17.1875 
L 4.890625 26.703125 
z
" id="DejaVuSans-34"/>
     </defs>
     <g transform="translate(239.701604 339.715592)scale(0.1 -0.1)">
      <use xlink:href="#DejaVuSans-30"/>
      <use x="63.623047" xlink:href="#DejaVuSans-2e"/>
      <use x="95.410156" xlink:href="#DejaVuSans-30"/>
      <use x="159.033203" xlink:href="#DejaVuSans-34"/>
     </g>
    </g>
   </g>
  </g>
  <g id="axis3d_2">
   <g id="line2d_10">
    <path d="M 406.608193 231.872667 
L 285.8629 324.406266 
" style="fill:none;stroke:#000000;stroke-linecap:square;stroke-width:0.8;"/>
   </g>
   <g id="text_10">
    <!-- Y Label -->
    <defs>
     <path d="M -0.203125 72.90625 
L 10.40625 72.90625 
L 30.609375 42.921875 
L 50.6875 72.90625 
L 61.28125 72.90625 
L 35.5 34.71875 
L 35.5 0 
L 25.59375 0 
L 25.59375 34.71875 
z
" id="DejaVuSans-59"/>
    </defs>
    <g transform="translate(362.413786 315.21155)rotate(-37.464883)scale(0.1 -0.1)">
     <use xlink:href="#DejaVuSans-59"/>
     <use x="61.083984" xlink:href="#DejaVuSans-20"/>
     <use x="92.871094" xlink:href="#DejaVuSans-4c"/>
     <use x="148.583984" xlink:href="#DejaVuSans-61"/>
     <use x="209.863281" xlink:href="#DejaVuSans-62"/>
     <use x="273.339844" xlink:href="#DejaVuSans-65"/>
     <use x="334.863281" xlink:href="#DejaVuSans-6c"/>
    </g>
   </g>
   <g id="Line3DCollection_2">
    <path d="M 59.610287 94.306775 
L 68.704963 264.339602 
L 292.860338 319.043754 
" style="fill:none;stroke:#b0b0b0;stroke-width:0.8;"/>
    <path d="M 76.321171 85.169687 
L 84.486198 254.200371 
L 307.345876 307.942708 
" style="fill:none;stroke:#b0b0b0;stroke-width:0.8;"/>
    <path d="M 92.730853 76.197288 
L 99.997353 244.234663 
L 321.572171 297.040336 
" style="fill:none;stroke:#b0b0b0;stroke-width:0.8;"/>
    <path d="M 108.847406 67.385166 
L 115.245301 234.438061 
L 335.546119 286.331349 
" style="fill:none;stroke:#b0b0b0;stroke-width:0.8;"/>
    <path d="M 124.678613 58.729063 
L 130.236687 224.806298 
L 349.274377 275.810648 
" style="fill:none;stroke:#b0b0b0;stroke-width:0.8;"/>
    <path d="M 140.231986 50.224872 
L 144.97793 215.335248 
L 362.763367 265.473311 
" style="fill:none;stroke:#b0b0b0;stroke-width:0.8;"/>
    <path d="M 155.514776 41.86863 
L 159.47524 206.020921 
L 376.019291 255.314585 
" style="fill:none;stroke:#b0b0b0;stroke-width:0.8;"/>
    <path d="M 170.533982 33.656509 
L 173.734623 196.85946 
L 389.048137 245.329881 
" style="fill:none;stroke:#b0b0b0;stroke-width:0.8;"/>
    <path d="M 185.296366 25.584811 
L 187.761887 187.847132 
L 401.85569 235.514765 
" style="fill:none;stroke:#b0b0b0;stroke-width:0.8;"/>
   </g>
   <g id="xtick_9">
    <g id="line2d_11">
     <path d="M 290.98429 318.585912 
L 296.616632 319.960461 
" style="fill:none;stroke:#000000;stroke-linecap:square;stroke-width:0.8;"/>
    </g>
    <g id="text_11">
     <!-- 0.03 -->
     <g transform="translate(294.403727 338.855741)scale(0.1 -0.1)">
      <use xlink:href="#DejaVuSans-30"/>
      <use x="63.623047" xlink:href="#DejaVuSans-2e"/>
      <use x="95.410156" xlink:href="#DejaVuSans-30"/>
      <use x="159.033203" xlink:href="#DejaVuSans-33"/>
     </g>
    </g>
   </g>
   <g id="xtick_10">
    <g id="line2d_12">
     <path d="M 305.481415 307.493096 
L 311.078932 308.84293 
" style="fill:none;stroke:#000000;stroke-linecap:square;stroke-width:0.8;"/>
    </g>
    <g id="text_12">
     <!-- 0.04 -->
     <g transform="translate(308.769193 327.648799)scale(0.1 -0.1)">
      <use xlink:href="#DejaVuSans-30"/>
      <use x="63.623047" xlink:href="#DejaVuSans-2e"/>
      <use x="95.410156" xlink:href="#DejaVuSans-30"/>
      <use x="159.033203" xlink:href="#DejaVuSans-34"/>
     </g>
    </g>
   </g>
   <g id="xtick_11">
    <g id="line2d_13">
     <path d="M 319.719184 296.598732 
L 325.282214 297.924512 
" style="fill:none;stroke:#000000;stroke-linecap:square;stroke-width:0.8;"/>
    </g>
    <g id="text_13">
     <!-- 0.05 -->
     <defs>
      <path d="M 10.796875 72.90625 
L 49.515625 72.90625 
L 49.515625 64.59375 
L 19.828125 64.59375 
L 19.828125 46.734375 
Q 21.96875 47.46875 24.109375 47.828125 
Q 26.265625 48.1875 28.421875 48.1875 
Q 40.625 48.1875 47.75 41.5 
Q 54.890625 34.8125 54.890625 23.390625 
Q 54.890625 11.625 47.5625 5.09375 
Q 40.234375 -1.421875 26.90625 -1.421875 
Q 22.3125 -1.421875 17.546875 -0.640625 
Q 12.796875 0.140625 7.71875 1.703125 
L 7.71875 11.625 
Q 12.109375 9.234375 16.796875 8.0625 
Q 21.484375 6.890625 26.703125 6.890625 
Q 35.15625 6.890625 40.078125 11.328125 
Q 45.015625 15.765625 45.015625 23.390625 
Q 45.015625 31 40.078125 35.4375 
Q 35.15625 39.890625 26.703125 39.890625 
Q 22.75 39.890625 18.8125 39.015625 
Q 14.890625 38.140625 10.796875 36.28125 
z
" id="DejaVuSans-35"/>
     </defs>
     <g transform="translate(322.877665 316.642346)scale(0.1 -0.1)">
      <use xlink:href="#DejaVuSans-30"/>
      <use x="63.623047" xlink:href="#DejaVuSans-2e"/>
      <use x="95.410156" xlink:href="#DejaVuSans-30"/>
      <use x="159.033203" xlink:href="#DejaVuSans-35"/>
     </g>
    </g>
   </g>
   <g id="xtick_12">
    <g id="line2d_14">
     <path d="M 333.704495 285.897542 
L 339.233376 287.199906 
" style="fill:none;stroke:#000000;stroke-linecap:square;stroke-width:0.8;"/>
    </g>
    <g id="text_14">
     <!-- 0.06 -->
     <defs>
      <path d="M 33.015625 40.375 
Q 26.375 40.375 22.484375 35.828125 
Q 18.609375 31.296875 18.609375 23.390625 
Q 18.609375 15.53125 22.484375 10.953125 
Q 26.375 6.390625 33.015625 6.390625 
Q 39.65625 6.390625 43.53125 10.953125 
Q 47.40625 15.53125 47.40625 23.390625 
Q 47.40625 31.296875 43.53125 35.828125 
Q 39.65625 40.375 33.015625 40.375 
z
M 52.59375 71.296875 
L 52.59375 62.3125 
Q 48.875 64.0625 45.09375 64.984375 
Q 41.3125 65.921875 37.59375 65.921875 
Q 27.828125 65.921875 22.671875 59.328125 
Q 17.53125 52.734375 16.796875 39.40625 
Q 19.671875 43.65625 24.015625 45.921875 
Q 28.375 48.1875 33.59375 48.1875 
Q 44.578125 48.1875 50.953125 41.515625 
Q 57.328125 34.859375 57.328125 23.390625 
Q 57.328125 12.15625 50.6875 5.359375 
Q 44.046875 -1.421875 33.015625 -1.421875 
Q 20.359375 -1.421875 13.671875 8.265625 
Q 6.984375 17.96875 6.984375 36.375 
Q 6.984375 53.65625 15.1875 63.9375 
Q 23.390625 74.21875 37.203125 74.21875 
Q 40.921875 74.21875 44.703125 73.484375 
Q 48.484375 72.75 52.59375 71.296875 
z
" id="DejaVuSans-36"/>
     </defs>
     <g transform="translate(336.735976 305.831051)scale(0.1 -0.1)">
      <use xlink:href="#DejaVuSans-30"/>
      <use x="63.623047" xlink:href="#DejaVuSans-2e"/>
      <use x="95.410156" xlink:href="#DejaVuSans-30"/>
      <use x="159.033203" xlink:href="#DejaVuSans-36"/>
     </g>
    </g>
   </g>
   <g id="xtick_13">
    <g id="line2d_15">
     <path d="M 347.444005 275.384434 
L 352.939071 276.663996 
" style="fill:none;stroke:#000000;stroke-linecap:square;stroke-width:0.8;"/>
    </g>
    <g id="text_15">
     <!-- 0.07 -->
     <defs>
      <path d="M 8.203125 72.90625 
L 55.078125 72.90625 
L 55.078125 68.703125 
L 28.609375 0 
L 18.3125 0 
L 43.21875 64.59375 
L 8.203125 64.59375 
z
" id="DejaVuSans-37"/>
     </defs>
     <g transform="translate(350.350723 295.209769)scale(0.1 -0.1)">
      <use xlink:href="#DejaVuSans-30"/>
      <use x="63.623047" xlink:href="#DejaVuSans-2e"/>
      <use x="95.410156" xlink:href="#DejaVuSans-30"/>
      <use x="159.033203" xlink:href="#DejaVuSans-37"/>
     </g>
    </g>
   </g>
   <g id="xtick_14">
    <g id="line2d_16">
     <path d="M 360.944135 265.054492 
L 366.405722 266.311846 
" style="fill:none;stroke:#000000;stroke-linecap:square;stroke-width:0.8;"/>
    </g>
    <g id="text_16">
     <!-- 0.08 -->
     <defs>
      <path d="M 31.78125 34.625 
Q 24.75 34.625 20.71875 30.859375 
Q 16.703125 27.09375 16.703125 20.515625 
Q 16.703125 13.921875 20.71875 10.15625 
Q 24.75 6.390625 31.78125 6.390625 
Q 38.8125 6.390625 42.859375 10.171875 
Q 46.921875 13.96875 46.921875 20.515625 
Q 46.921875 27.09375 42.890625 30.859375 
Q 38.875 34.625 31.78125 34.625 
z
M 21.921875 38.8125 
Q 15.578125 40.375 12.03125 44.71875 
Q 8.5 49.078125 8.5 55.328125 
Q 8.5 64.0625 14.71875 69.140625 
Q 20.953125 74.21875 31.78125 74.21875 
Q 42.671875 74.21875 48.875 69.140625 
Q 55.078125 64.0625 55.078125 55.328125 
Q 55.078125 49.078125 51.53125 44.71875 
Q 48 40.375 41.703125 38.8125 
Q 48.828125 37.15625 52.796875 32.3125 
Q 56.78125 27.484375 56.78125 20.515625 
Q 56.78125 9.90625 50.3125 4.234375 
Q 43.84375 -1.421875 31.78125 -1.421875 
Q 19.734375 -1.421875 13.25 4.234375 
Q 6.78125 9.90625 6.78125 20.515625 
Q 6.78125 27.484375 10.78125 32.3125 
Q 14.796875 37.15625 21.921875 38.8125 
z
M 18.3125 54.390625 
Q 18.3125 48.734375 21.84375 45.5625 
Q 25.390625 42.390625 31.78125 42.390625 
Q 38.140625 42.390625 41.71875 45.5625 
Q 45.3125 48.734375 45.3125 54.390625 
Q 45.3125 60.0625 41.71875 63.234375 
Q 38.140625 66.40625 31.78125 66.40625 
Q 25.390625 66.40625 21.84375 63.234375 
Q 18.3125 60.0625 18.3125 54.390625 
z
" id="DejaVuSans-38"/>
     </defs>
     <g transform="translate(363.72827 284.773533)scale(0.1 -0.1)">
      <use xlink:href="#DejaVuSans-30"/>
      <use x="63.623047" xlink:href="#DejaVuSans-2e"/>
      <use x="95.410156" xlink:href="#DejaVuSans-30"/>
      <use x="159.033203" xlink:href="#DejaVuSans-38"/>
     </g>
    </g>
   </g>
   <g id="xtick_15">
    <g id="line2d_17">
     <path d="M 374.211089 254.90297 
L 379.639528 256.138689 
" style="fill:none;stroke:#000000;stroke-linecap:square;stroke-width:0.8;"/>
    </g>
    <g id="text_17">
     <!-- 0.09 -->
     <defs>
      <path d="M 10.984375 1.515625 
L 10.984375 10.5 
Q 14.703125 8.734375 18.5 7.8125 
Q 22.3125 6.890625 25.984375 6.890625 
Q 35.75 6.890625 40.890625 13.453125 
Q 46.046875 20.015625 46.78125 33.40625 
Q 43.953125 29.203125 39.59375 26.953125 
Q 35.25 24.703125 29.984375 24.703125 
Q 19.046875 24.703125 12.671875 31.3125 
Q 6.296875 37.9375 6.296875 49.421875 
Q 6.296875 60.640625 12.9375 67.421875 
Q 19.578125 74.21875 30.609375 74.21875 
Q 43.265625 74.21875 49.921875 64.515625 
Q 56.59375 54.828125 56.59375 36.375 
Q 56.59375 19.140625 48.40625 8.859375 
Q 40.234375 -1.421875 26.421875 -1.421875 
Q 22.703125 -1.421875 18.890625 -0.6875 
Q 15.09375 0.046875 10.984375 1.515625 
z
M 30.609375 32.421875 
Q 37.25 32.421875 41.125 36.953125 
Q 45.015625 41.5 45.015625 49.421875 
Q 45.015625 57.28125 41.125 61.84375 
Q 37.25 66.40625 30.609375 66.40625 
Q 23.96875 66.40625 20.09375 61.84375 
Q 16.21875 57.28125 16.21875 49.421875 
Q 16.21875 41.5 20.09375 36.953125 
Q 23.96875 32.421875 30.609375 32.421875 
z
" id="DejaVuSans-39"/>
     </defs>
     <g transform="translate(376.874762 274.51755)scale(0.1 -0.1)">
      <use xlink:href="#DejaVuSans-30"/>
      <use x="63.623047" xlink:href="#DejaVuSans-2e"/>
      <use x="95.410156" xlink:href="#DejaVuSans-30"/>
      <use x="159.033203" xlink:href="#DejaVuSans-39"/>
     </g>
    </g>
   </g>
   <g id="xtick_16">
    <g id="line2d_18">
     <path d="M 387.250856 244.925285 
L 392.646476 246.139923 
" style="fill:none;stroke:#000000;stroke-linecap:square;stroke-width:0.8;"/>
    </g>
    <g id="text_18">
     <!-- 0.10 -->
     <g transform="translate(389.796135 264.43719)scale(0.1 -0.1)">
      <use xlink:href="#DejaVuSans-30"/>
      <use x="63.623047" xlink:href="#DejaVuSans-2e"/>
      <use x="95.410156" xlink:href="#DejaVuSans-31"/>
      <use x="159.033203" xlink:href="#DejaVuSans-30"/>
     </g>
    </g>
   </g>
   <g id="xtick_17">
    <g id="line2d_19">
     <path d="M 400.069223 235.117011 
L 405.43235 236.311102 
" style="fill:none;stroke:#000000;stroke-linecap:square;stroke-width:0.8;"/>
    </g>
    <g id="text_19">
     <!-- 0.11 -->
     <g transform="translate(402.498122 254.52798)scale(0.1 -0.1)">
      <use xlink:href="#DejaVuSans-30"/>
      <use x="63.623047" xlink:href="#DejaVuSans-2e"/>
      <use x="95.410156" xlink:href="#DejaVuSans-31"/>
      <use x="159.033203" xlink:href="#DejaVuSans-31"/>
     </g>
    </g>
   </g>
  </g>
  <g id="axis3d_3">
   <g id="line2d_20">
    <path d="M 406.608193 231.872667 
L 415.546579 65.078886 
" style="fill:none;stroke:#000000;stroke-linecap:square;stroke-width:0.8;"/>
   </g>
   <g id="text_20">
    <!-- Z Label -->
    <defs>
     <path d="M 5.609375 72.90625 
L 62.890625 72.90625 
L 62.890625 65.375 
L 16.796875 8.296875 
L 64.015625 8.296875 
L 64.015625 0 
L 4.5 0 
L 4.5 7.515625 
L 50.59375 64.59375 
L 5.609375 64.59375 
z
" id="DejaVuSans-5a"/>
    </defs>
    <g transform="translate(453.405192 165.150081)rotate(-86.932485)scale(0.1 -0.1)">
     <use xlink:href="#DejaVuSans-5a"/>
     <use x="68.505859" xlink:href="#DejaVuSans-20"/>
     <use x="100.292969" xlink:href="#DejaVuSans-4c"/>
     <use x="156.005859" xlink:href="#DejaVuSans-61"/>
     <use x="217.285156" xlink:href="#DejaVuSans-62"/>
     <use x="280.761719" xlink:href="#DejaVuSans-65"/>
     <use x="342.285156" xlink:href="#DejaVuSans-6c"/>
    </g>
   </g>
   <g id="Line3DCollection_3">
    <path d="M 406.954985 225.401393 
L 192.884163 178.206277 
L 60.716287 262.629922 
" style="fill:none;stroke:#b0b0b0;stroke-width:0.8;"/>
    <path d="M 408.089112 204.23815 
L 192.605082 157.626899 
L 59.506333 241.024314 
" style="fill:none;stroke:#b0b0b0;stroke-width:0.8;"/>
    <path d="M 409.238442 182.791187 
L 192.322416 136.783241 
L 58.279618 219.11943 
" style="fill:none;stroke:#b0b0b0;stroke-width:0.8;"/>
    <path d="M 410.403285 161.054761 
L 192.036097 115.670178 
L 57.035793 196.90901 
" style="fill:none;stroke:#b0b0b0;stroke-width:0.8;"/>
    <path d="M 411.583957 139.022972 
L 191.746053 94.282453 
L 55.774497 174.386615 
" style="fill:none;stroke:#b0b0b0;stroke-width:0.8;"/>
    <path d="M 412.780781 116.689757 
L 191.452211 72.614671 
L 54.495358 151.545627 
" style="fill:none;stroke:#b0b0b0;stroke-width:0.8;"/>
    <path d="M 413.994092 94.04889 
L 191.154496 50.661295 
L 53.197997 128.379236 
" style="fill:none;stroke:#b0b0b0;stroke-width:0.8;"/>
    <path d="M 415.224234 71.093967 
L 190.852831 28.416642 
L 51.88202 104.88044 
" style="fill:none;stroke:#b0b0b0;stroke-width:0.8;"/>
   </g>
   <g id="xtick_18">
    <g id="line2d_21">
     <path d="M 405.168794 225.0076 
L 410.531088 226.189798 
" style="fill:none;stroke:#000000;stroke-linecap:square;stroke-width:0.8;"/>
    </g>
    <g id="text_21">
     <!-- −0.14 -->
     <g transform="translate(409.959423 231.029251)scale(0.1 -0.1)">
      <use xlink:href="#DejaVuSans-2212"/>
      <use x="83.789062" xlink:href="#DejaVuSans-30"/>
      <use x="147.412109" xlink:href="#DejaVuSans-2e"/>
      <use x="179.199219" xlink:href="#DejaVuSans-31"/>
      <use x="242.822266" xlink:href="#DejaVuSans-34"/>
     </g>
    </g>
   </g>
   <g id="xtick_19">
    <g id="line2d_22">
     <path d="M 406.290635 203.849122 
L 411.689835 205.01702 
" style="fill:none;stroke:#000000;stroke-linecap:square;stroke-width:0.8;"/>
    </g>
    <g id="text_22">
     <!-- −0.13 -->
     <g transform="translate(411.213386 209.889871)scale(0.1 -0.1)">
      <use xlink:href="#DejaVuSans-2212"/>
      <use x="83.789062" xlink:href="#DejaVuSans-30"/>
      <use x="147.412109" xlink:href="#DejaVuSans-2e"/>
      <use x="179.199219" xlink:href="#DejaVuSans-31"/>
      <use x="242.822266" xlink:href="#DejaVuSans-33"/>
     </g>
    </g>
   </g>
   <g id="xtick_20">
    <g id="line2d_23">
     <path d="M 407.427511 182.407088 
L 412.864127 183.560196 
" style="fill:none;stroke:#000000;stroke-linecap:square;stroke-width:0.8;"/>
    </g>
    <g id="text_23">
     <!-- −0.12 -->
     <g transform="translate(412.484131 188.467589)scale(0.1 -0.1)">
      <use xlink:href="#DejaVuSans-2212"/>
      <use x="83.789062" xlink:href="#DejaVuSans-30"/>
      <use x="147.412109" xlink:href="#DejaVuSans-2e"/>
      <use x="179.199219" xlink:href="#DejaVuSans-31"/>
      <use x="242.822266" xlink:href="#DejaVuSans-32"/>
     </g>
    </g>
   </g>
   <g id="xtick_21">
    <g id="line2d_24">
     <path d="M 408.579725 160.675759 
L 414.05428 161.813569 
" style="fill:none;stroke:#000000;stroke-linecap:square;stroke-width:0.8;"/>
    </g>
    <g id="text_24">
     <!-- −0.11 -->
     <g transform="translate(413.771996 166.756689)scale(0.1 -0.1)">
      <use xlink:href="#DejaVuSans-2212"/>
      <use x="83.789062" xlink:href="#DejaVuSans-30"/>
      <use x="147.412109" xlink:href="#DejaVuSans-2e"/>
      <use x="179.199219" xlink:href="#DejaVuSans-31"/>
      <use x="242.822266" xlink:href="#DejaVuSans-31"/>
     </g>
    </g>
   </g>
   <g id="xtick_22">
    <g id="line2d_25">
     <path d="M 409.747591 138.649242 
L 415.260616 139.77123 
" style="fill:none;stroke:#000000;stroke-linecap:square;stroke-width:0.8;"/>
    </g>
    <g id="text_25">
     <!-- −0.10 -->
     <g transform="translate(415.07733 144.751297)scale(0.1 -0.1)">
      <use xlink:href="#DejaVuSans-2212"/>
      <use x="83.789062" xlink:href="#DejaVuSans-30"/>
      <use x="147.412109" xlink:href="#DejaVuSans-2e"/>
      <use x="179.199219" xlink:href="#DejaVuSans-31"/>
      <use x="242.822266" xlink:href="#DejaVuSans-30"/>
     </g>
    </g>
   </g>
   <g id="xtick_23">
    <g id="line2d_26">
     <path d="M 410.931429 116.32148 
L 416.483469 117.427106 
" style="fill:none;stroke:#000000;stroke-linecap:square;stroke-width:0.8;"/>
    </g>
    <g id="text_26">
     <!-- −0.09 -->
     <g transform="translate(416.400491 122.445383)scale(0.1 -0.1)">
      <use xlink:href="#DejaVuSans-2212"/>
      <use x="83.789062" xlink:href="#DejaVuSans-30"/>
      <use x="147.412109" xlink:href="#DejaVuSans-2e"/>
      <use x="179.199219" xlink:href="#DejaVuSans-30"/>
      <use x="242.822266" xlink:href="#DejaVuSans-39"/>
     </g>
    </g>
   </g>
   <g id="xtick_24">
    <g id="line2d_27">
     <path d="M 412.131569 93.68625 
L 417.723179 94.774955 
" style="fill:none;stroke:#000000;stroke-linecap:square;stroke-width:0.8;"/>
    </g>
    <g id="text_27">
     <!-- −0.08 -->
     <g transform="translate(417.741846 99.832746)scale(0.1 -0.1)">
      <use xlink:href="#DejaVuSans-2212"/>
      <use x="83.789062" xlink:href="#DejaVuSans-30"/>
      <use x="147.412109" xlink:href="#DejaVuSans-2e"/>
      <use x="179.199219" xlink:href="#DejaVuSans-30"/>
      <use x="242.822266" xlink:href="#DejaVuSans-38"/>
     </g>
    </g>
   </g>
   <g id="xtick_25">
    <g id="line2d_28">
     <path d="M 413.34835 70.737158 
L 418.980098 71.808364 
" style="fill:none;stroke:#000000;stroke-linecap:square;stroke-width:0.8;"/>
    </g>
    <g id="text_28">
     <!-- −0.07 -->
     <g transform="translate(419.101773 76.907017)scale(0.1 -0.1)">
      <use xlink:href="#DejaVuSans-2212"/>
      <use x="83.789062" xlink:href="#DejaVuSans-30"/>
      <use x="147.412109" xlink:href="#DejaVuSans-2e"/>
      <use x="179.199219" xlink:href="#DejaVuSans-30"/>
      <use x="242.822266" xlink:href="#DejaVuSans-37"/>
     </g>
    </g>
   </g>
  </g>
  <g id="axes_1">
   <g id="Path3DCollection_1">
    <defs>
     <path d="M 0 2.236068 
C 0.593012 2.236068 1.161816 2.000462 1.581139 1.581139 
C 2.000462 1.161816 2.236068 0.593012 2.236068 0 
C 2.236068 -0.593012 2.000462 -1.161816 1.581139 -1.581139 
C 1.161816 -2.000462 0.593012 -2.236068 0 -2.236068 
C -0.593012 -2.236068 -1.161816 -2.000462 -1.581139 -1.581139 
C -2.000462 -1.161816 -2.236068 -0.593012 -2.236068 0 
C -2.236068 0.593012 -2.000462 1.161816 -1.581139 1.581139 
C -1.161816 2.000462 -0.593012 2.236068 0 2.236068 
z
" id="C0_0_a6c101ed71"/>
    </defs>
    <g clip-path="url(#p93cc210022)">
     <use style="fill:#ff0000;fill-opacity:0.3;stroke:#ff0000;stroke-opacity:0.3;" x="265.810814" xlink:href="#C0_0_a6c101ed71" y="224.400149"/>
    </g>
    <g clip-path="url(#p93cc210022)">
     <use style="fill:#ff0000;stroke:#ff0000;" x="138.029401" xlink:href="#C0_0_a6c101ed71" y="169.267374"/>
    </g>
   </g>
   <g id="Path3DCollection_2">
    <defs>
     <path d="M 0 2.236068 
C 0.593012 2.236068 1.161816 2.000462 1.581139 1.581139 
C 2.000462 1.161816 2.236068 0.593012 2.236068 0 
C 2.236068 -0.593012 2.000462 -1.161816 1.581139 -1.581139 
C 1.161816 -2.000462 0.593012 -2.236068 0 -2.236068 
C -0.593012 -2.236068 -1.161816 -2.000462 -1.581139 -1.581139 
C -2.000462 -1.161816 -2.236068 -0.593012 -2.236068 0 
C -2.236068 0.593012 -2.000462 1.161816 -1.581139 1.581139 
C -1.161816 2.000462 -0.593012 2.236068 0 2.236068 
z
" id="C1_0_b20fdc899e"/>
    </defs>
    <g clip-path="url(#p93cc210022)">
     <use style="fill:#008000;fill-opacity:0.958286;stroke:#008000;stroke-opacity:0.958286;" x="93.627619" xlink:href="#C1_0_b20fdc899e" y="127.120845"/>
    </g>
    <g clip-path="url(#p93cc210022)">
     <use style="fill:#008000;stroke:#008000;" x="135.930802" xlink:href="#C1_0_b20fdc899e" y="100.4223"/>
    </g>
    <g clip-path="url(#p93cc210022)">
     <use style="fill:#008000;fill-opacity:0.521942;stroke:#008000;stroke-opacity:0.521942;" x="140.042312" xlink:href="#C1_0_b20fdc899e" y="235.301446"/>
    </g>
    <g clip-path="url(#p93cc210022)">
     <use style="fill:#008000;fill-opacity:0.3;stroke:#008000;stroke-opacity:0.3;" x="384.431822" xlink:href="#C1_0_b20fdc899e" y="212.658483"/>
    </g>
   </g>
   <g id="Path3DCollection_3">
    <defs>
     <path d="M 0 2.236068 
C 0.593012 2.236068 1.161816 2.000462 1.581139 1.581139 
C 2.000462 1.161816 2.236068 0.593012 2.236068 0 
C 2.236068 -0.593012 2.000462 -1.161816 1.581139 -1.581139 
C 1.161816 -2.000462 0.593012 -2.236068 0 -2.236068 
C -0.593012 -2.236068 -1.161816 -2.000462 -1.581139 -1.581139 
C -2.000462 -1.161816 -2.236068 -0.593012 -2.236068 0 
C -2.236068 0.593012 -2.000462 1.161816 -1.581139 1.581139 
C -1.161816 2.000462 -0.593012 2.236068 0 2.236068 
z
" id="C2_0_64959cc8ee"/>
    </defs>
    <g clip-path="url(#p93cc210022)">
     <use style="fill:#0000ff;fill-opacity:0.799947;stroke:#0000ff;stroke-opacity:0.799947;" x="93.627619" xlink:href="#C2_0_64959cc8ee" y="127.120845"/>
    </g>
    <g clip-path="url(#p93cc210022)">
     <use style="fill:#0000ff;fill-opacity:0.807127;stroke:#0000ff;stroke-opacity:0.807127;" x="108.784277" xlink:href="#C2_0_64959cc8ee" y="118.705432"/>
    </g>
    <g clip-path="url(#p93cc210022)">
     <use style="fill:#0000ff;fill-opacity:0.817972;stroke:#0000ff;stroke-opacity:0.817972;" x="122.893656" xlink:href="#C2_0_64959cc8ee" y="109.822981"/>
    </g>
    <g clip-path="url(#p93cc210022)">
     <use style="fill:#0000ff;fill-opacity:0.832215;stroke:#0000ff;stroke-opacity:0.832215;" x="135.898807" xlink:href="#C2_0_64959cc8ee" y="100.53079"/>
    </g>
    <g clip-path="url(#p93cc210022)">
     <use style="fill:#0000ff;fill-opacity:0.868809;stroke:#0000ff;stroke-opacity:0.868809;" x="137.665764" xlink:href="#C2_0_64959cc8ee" y="109.287518"/>
    </g>
    <g clip-path="url(#p93cc210022)">
     <use style="fill:#0000ff;fill-opacity:0.909758;stroke:#0000ff;stroke-opacity:0.909758;" x="139.734732" xlink:href="#C2_0_64959cc8ee" y="117.368387"/>
    </g>
    <g clip-path="url(#p93cc210022)">
     <use style="fill:#0000ff;fill-opacity:0.953557;stroke:#0000ff;stroke-opacity:0.953557;" x="142.094864" xlink:href="#C2_0_64959cc8ee" y="124.702092"/>
    </g>
    <g clip-path="url(#p93cc210022)">
     <use style="fill:#0000ff;stroke:#0000ff;" x="144.676725" xlink:href="#C2_0_64959cc8ee" y="131.249937"/>
    </g>
    <g clip-path="url(#p93cc210022)">
     <use style="fill:#0000ff;fill-opacity:0.726249;stroke:#0000ff;stroke-opacity:0.726249;" x="146.367655" xlink:href="#C2_0_64959cc8ee" y="184.736882"/>
    </g>
    <g clip-path="url(#p93cc210022)">
     <use style="fill:#0000ff;fill-opacity:0.468155;stroke:#0000ff;stroke-opacity:0.468155;" x="140.270582" xlink:href="#C2_0_64959cc8ee" y="235.417646"/>
    </g>
    <g clip-path="url(#p93cc210022)">
     <use style="fill:#0000ff;fill-opacity:0.453992;stroke:#0000ff;stroke-opacity:0.453992;" x="168.824829" xlink:href="#C2_0_64959cc8ee" y="239.493137"/>
    </g>
    <g clip-path="url(#p93cc210022)">
     <use style="fill:#0000ff;fill-opacity:0.443415;stroke:#0000ff;stroke-opacity:0.443415;" x="198.034941" xlink:href="#C2_0_64959cc8ee" y="242.362619"/>
    </g>
    <g clip-path="url(#p93cc210022)">
     <use style="fill:#0000ff;fill-opacity:0.436533;stroke:#0000ff;stroke-opacity:0.436533;" x="227.700935" xlink:href="#C2_0_64959cc8ee" y="243.664722"/>
    </g>
    <g clip-path="url(#p93cc210022)">
     <use style="fill:#0000ff;fill-opacity:0.433162;stroke:#0000ff;stroke-opacity:0.433162;" x="257.662985" xlink:href="#C2_0_64959cc8ee" y="243.338504"/>
    </g>
    <g clip-path="url(#p93cc210022)">
     <use style="fill:#0000ff;fill-opacity:0.43308;stroke:#0000ff;stroke-opacity:0.43308;" x="287.754198" xlink:href="#C2_0_64959cc8ee" y="241.333348"/>
    </g>
    <g clip-path="url(#p93cc210022)">
     <use style="fill:#0000ff;fill-opacity:0.404258;stroke:#0000ff;stroke-opacity:0.404258;" x="307.409584" xlink:href="#C2_0_64959cc8ee" y="237.63544"/>
    </g>
    <g clip-path="url(#p93cc210022)">
     <use style="fill:#0000ff;fill-opacity:0.376596;stroke:#0000ff;stroke-opacity:0.376596;" x="326.983954" xlink:href="#C2_0_64959cc8ee" y="232.931136"/>
    </g>
    <g clip-path="url(#p93cc210022)">
     <use style="fill:#0000ff;fill-opacity:0.35004;stroke:#0000ff;stroke-opacity:0.35004;" x="346.388067" xlink:href="#C2_0_64959cc8ee" y="227.217497"/>
    </g>
    <g clip-path="url(#p93cc210022)">
     <use style="fill:#0000ff;fill-opacity:0.324531;stroke:#0000ff;stroke-opacity:0.324531;" x="365.531501" xlink:href="#C2_0_64959cc8ee" y="220.495974"/>
    </g>
    <g clip-path="url(#p93cc210022)">
     <use style="fill:#0000ff;fill-opacity:0.3;stroke:#0000ff;stroke-opacity:0.3;" x="384.322916" xlink:href="#C2_0_64959cc8ee" y="212.772615"/>
    </g>
   </g>
   <g id="line2d_29">
    <path clip-path="url(#p93cc210022)" d="M 90.695479 128.121269 
L 97.781581 123.314181 
L 104.215699 119.218951 
L 110.029049 115.800279 
L 115.252626 113.023354 
L 119.917186 110.853862 
L 124.053233 109.258004 
L 127.690996 108.202521 
L 130.860401 107.654718 
L 133.59104 107.582492 
L 135.912141 107.954366 
L 137.852528 108.739515 
L 139.440591 109.907807 
L 140.704244 111.42983 
L 141.670887 113.27693 
L 142.367373 115.421239 
L 142.819966 117.835707 
L 143.05431 120.494134 
L 143.09539 123.371191 
L 142.967504 126.44245 
L 142.694233 129.684401 
L 142.298411 133.074472 
L 141.802102 136.591046 
L 141.226578 140.21347 
L 140.5923 143.922065 
L 139.918902 147.69813 
L 139.225181 151.523945 
L 138.529084 155.382767 
L 137.847703 159.258828 
L 137.197273 163.137323 
L 136.59317 167.004403 
L 136.049912 170.847158 
L 135.581168 174.6536 
L 135.199762 178.412645 
L 134.917682 182.11409 
L 134.746096 185.748593 
L 134.695361 189.307641 
L 134.775038 192.783529 
L 134.993913 196.169331 
L 135.360009 199.458865 
L 135.880609 202.646669 
L 136.562273 205.727965 
L 137.410857 208.698631 
L 138.431534 211.555166 
L 139.628816 214.294658 
L 141.006569 216.914752 
L 142.568037 219.41362 
L 144.315861 221.789923 
L 146.252093 224.042787 
L 148.37822 226.171764 
L 150.695175 228.176807 
L 153.203358 230.058239 
L 155.902645 231.81672 
L 158.792406 233.453224 
L 161.871512 234.969007 
L 165.138352 236.36558 
L 168.590833 237.644686 
L 172.226395 238.808273 
L 176.042012 239.858468 
L 180.034196 240.797556 
L 184.199001 241.627956 
L 188.532019 242.352198 
L 193.028383 242.972905 
L 197.682762 243.49277 
L 202.489351 243.914535 
L 207.441872 244.240977 
L 212.533556 244.474884 
L 217.757142 244.619042 
L 223.104856 244.676214 
L 228.568402 244.649127 
L 234.138946 244.540452 
L 239.8071 244.352792 
L 245.562901 244.088664 
L 251.395797 243.750484 
L 257.294626 243.340557 
L 263.247592 242.861057 
L 269.242253 242.314015 
L 275.265493 241.701308 
L 281.303508 241.024644 
L 287.341785 240.285546 
L 293.365085 239.485347 
L 299.357428 238.625169 
L 305.302079 237.705919 
L 311.181539 236.728273 
L 316.977539 235.692668 
L 322.671037 234.599291 
L 328.242223 233.44807 
L 333.670527 232.238666 
L 338.934635 230.970466 
L 344.012513 229.642576 
L 348.881441 228.253819 
L 353.518055 226.802731 
L 357.898396 225.287558 
L 361.997979 223.706259 
L 365.791865 222.056511 
L 369.254754 220.33571 
L 372.361082 218.540982 
L 375.085142 216.669197 
L 377.401215 214.716979 
L 379.283711 212.680725 
" style="fill:none;stroke:#0000ff;stroke-linecap:square;stroke-width:1.5;"/>
   </g>
   <g id="line2d_30">
    <path clip-path="url(#p93cc210022)" d="M 93.627619 127.120845 
L 135.930802 100.4223 
L 140.042312 235.301446 
L 384.431822 212.658483 
" style="fill:none;stroke:#008000;stroke-linecap:square;stroke-width:1.5;"/>
   </g>
  </g>
 </g>
 <defs>
  <clipPath id="p93cc210022">
   <rect height="345.6" width="460.8" x="0" y="0"/>
  </clipPath>
 </defs>
</svg>
